# xmcd
# 
# Track frame offsets:
#     150
#     15175
#     30325
#     53175
#     69220
#     85205
#     98282
#     111522
#     127235
#     140755
#     167905
#     198267
#     219482
#     232040
#     249747
#     268822
#     292562
# 
# Disc length: 4310
# 
# Revision: 3
# Processed by: cddbd v1.5.2PL0 Copyright (c) Steve Scherf et al.
# Submitted via: fre:ac v1.0.31
# 
DISCID=eb10d411
DTITLE=Poco - Gold Disc 1
DYEAR=2006
DGENRE=Rock/Pop
TTITLE0=Pickin' Up the Pieces
TTITLE1=You Better Think Twice
TTITLE2=Bad Weather
TTITLE3=A Good Feelin' to Know
TTITLE4=I Can See Everything
TTITLE5=Keep On Tryin'
TTITLE6=Makin' Love
TTITLE7=Dallas
TTITLE8=Starin' at the Sky
TTITLE9=Too Many Nights Too Long
TTITLE10=Rose of Cimarron
TTITLE11=Indian Summer
TTITLE12=Me and You
TTITLE13=Find Out in Time
TTITLE14=Legend
TTITLE15=Spellbound
TTITLE16=Magnolia [live]
EXTD=2CD: Universal/Hip-O B0007079-02 (2006-09-19), UPC 602517005105, BMG D216626.
EXTT0=(Richie Furay]\nFrom the album "Pickin' Up the Pieces" (1969).
EXTT1=(Jim Messina]\nFrom the album "Poco" (1970).
EXTT2=(Paul Cotton]\nFrom the album "From the Inside" (1971).
EXTT3=(Richie Furay]\nFrom the album "A Good Feelin' to Know" (1972).
EXTT4=(Timothy B. Schmit]\nFrom the album "A Good Feelin' to Know" (1972).
EXTT5=(Timothy B. Schmit]\nFrom the album "Head over Heels" (1975).
EXTT6=(Rusty Young]\nFrom the album "Head over Heels" (1975).
EXTT7=(Donal Pagen/Walter Becker]\nFrom the album "Head over Heels" (1975).
EXTT8=(John Logan/Timothy B. Schmit]\nFrom the album "Rose of Cimarron" (1976).
EXTT9=(Paul Cotton]\nFrom the album "Rose of Cimarron" (1976).
EXTT10=(Rusty Young]\nFrom the album "Rose of Cimarron" (1976).
EXTT11=(Paul Cotton]\nFrom the album "Indian Summer" (1977).
EXTT12=(Timothy B. Schmit]\nFrom the album "Indian Summer" (1977).
EXTT13=(Timothy B. Schmit/Robbin Thompson]\nFrom the album "Legend" (1978).
EXTT14=(Rusty Young]\nFrom the album "Legend" (1978).
EXTT15=(Rusty Young]\nFrom the album "Legend" (1978).
EXTT16=(J.J. Cale]\nFrom the album "The Last Roundup" (recorded 1977).
PLAYORDER=
